<svg width="1440" height="680" viewBox="0 0 1440 680" fill="none" xmlns="http://www.w3.org/2000/svg">
<rect width="1440" height="680" fill="white"/>
<g filter="url(#filter0_d)">
<path d="M432 475.807V584H48V259.139C47.9987 254.589 50.6488 250.286 55.2032 247.444L138.739 195.283C142.144 193.155 146.377 191.997 150.74 192H329.26C333.623 191.998 337.855 193.156 341.261 195.283L424.797 247.444C429.351 250.286 432.001 254.589 432 259.139V475.807Z" fill="#E9D7DC"/>
<path d="M151.054 149C151.054 146.791 152.845 145 155.054 145H324.946C327.155 145 328.946 146.791 328.946 149V188C328.946 190.209 327.155 192 324.946 192H155.054C152.845 192 151.054 190.209 151.054 188V149Z" fill="#DF8596"/>
<path d="M432 599.41V626.662C431.997 638.445 423.401 647.997 412.796 648H67.204C56.5995 647.997 48.0027 638.445 48 626.662V584H432V599.41Z" fill="#DF8596"/>
</g>
<path d="M113.313 609.35C112.6 606.05 110.688 604.025 108.513 602.787C106.788 601.812 104.65 601.475 102.775 601.437C100.525 601.437 98.2 601.925 96.4 603.162C94.45 604.475 93.175 606.612 93.175 609.125C93.175 610.962 93.6625 612.575 95.0875 613.925C96.4375 615.2 98.275 615.725 100.375 616.325L105.363 617.787C106.638 618.162 107.688 618.5 108.475 619.25C109.113 619.85 109.413 620.712 109.413 621.575C109.413 622.775 108.888 623.825 107.8 624.612C106.675 625.475 104.875 625.85 103.263 625.85C101.125 625.85 99.2875 625.062 97.9375 623.75C96.9625 622.85 96.4375 621.575 96.2125 620.637L92.125 621.275C92.3875 622.887 93.0625 624.575 94.4125 626.112C96.7375 628.587 99.8125 629.562 103.113 629.562C106.075 629.562 108.625 628.962 110.688 627.237C112.413 625.85 113.5 623.862 113.5 621.65C113.5 619.512 113.125 618.05 111.738 616.587C110.613 615.425 108.475 614.562 106.263 613.925L101.5 612.575C99.9625 612.125 98.7625 611.637 98.05 610.962C97.4875 610.4 97.3 609.612 97.3 608.975C97.3 607.662 98.2 606.65 99.175 606.05C100.113 605.45 101.388 605.15 102.738 605.15C104.088 605.15 105.438 605.6 106.45 606.2C107.763 607.025 108.813 608.337 109.113 610.1L113.313 609.35ZM137.568 602V613.625H124.068V602H120.13V629H124.068V617.337H137.568V629H141.468V602H137.568ZM166.838 629H170.888L162.113 602H156.488L147.713 629H151.763L153.751 622.925H164.851L166.838 629ZM154.951 619.25L159.263 605.975L163.613 619.25H154.951ZM181.46 602V625.287H193.685V629H177.523V602H181.46ZM204.063 602V625.287H216.288V629H200.125V602H204.063ZM233.24 629.562C241.19 629.562 245.952 623.825 246.027 615.5C245.877 607.1 241.34 601.512 233.24 601.437C225.29 601.4 220.452 607.325 220.49 615.5C220.527 623.675 225.252 629.562 233.24 629.562ZM233.24 625.85C227.54 625.812 224.652 621.725 224.615 615.5C224.615 609.425 227.54 605.15 233.24 605.187C238.94 605.187 241.865 609.35 241.865 615.5C241.827 621.575 239.015 625.85 233.24 625.85ZM281.141 602L275.441 622.437L269.741 602L265.616 602.037L259.991 622.437L254.291 602H250.166L258.041 629H261.941L267.716 608.825L273.528 629H277.428L285.266 602H281.141ZM317.879 602H314.316L304.566 622.325L294.816 602H291.254V629H294.966V610.55L303.666 629H305.466L314.204 610.512V629H317.879V602ZM326.395 602V629H330.333V602H326.395ZM342.825 602H338.85V629H342.825V608.937L356.137 629H360.112V602H356.137V622.062L342.825 602ZM389.762 615.5C389.762 622.325 386.425 628.062 380.05 628.85C379.075 628.962 377.912 629 376.712 629H368.237V602H376.712C377.912 602 379.075 602.037 380.05 602.15C386.425 602.937 389.762 608.675 389.762 615.5ZM385.6 615.5C385.6 610.812 383.95 606.8 379.75 605.937C379.037 605.787 377.837 605.712 376.712 605.712H372.25V625.287H376.712C377.837 625.287 379.037 625.212 379.75 625.062C383.95 624.2 385.6 620.187 385.6 615.5Z" fill="white"/>
<rect x="480" y="24" width="816" height="624" rx="16" fill="#8C6168"/>
<path d="M1273 470C1273 467.791 1274.79 466 1277 466H1354V494H1277C1274.79 494 1273 492.209 1273 490V470Z" fill="#DCB2C5"/>
<path d="M1284.64 466.82V493.98C1284.64 495.523 1284.03 497.004 1282.94 498.095C1281.84 499.187 1280.36 499.8 1278.82 499.8C1277.28 499.8 1275.8 499.187 1274.7 498.095C1273.61 497.004 1273 495.523 1273 493.98V466.82C1273 465.276 1273.61 463.796 1274.7 462.705C1275.8 461.613 1277.28 461 1278.82 461C1280.36 461 1281.84 461.613 1282.94 462.705C1284.03 463.796 1284.64 465.276 1284.64 466.82Z" fill="#DF8596"/>
<path d="M1303 469H1310.76V472.88H1303V469Z" fill="#E9D7DC"/>
<path d="M1354 466H1357C1370.81 466 1382 477.193 1382 491V502C1382 504.209 1380.21 506 1378 506H1358C1355.79 506 1354 504.209 1354 502V466Z" fill="#DCB2C5"/>
<path d="M1369.46 473.531C1371.33 474.702 1372.76 476.513 1373.65 478.842L1370.86 481.168C1370.09 479.248 1368.88 477.752 1367.32 476.772C1365.81 475.72 1363.95 475.212 1361.88 475.281L1362.91 471.801C1365.4 471.69 1367.63 472.279 1369.46 473.531Z" fill="#E9D7DC"/>
<g filter="url(#filter1_d)">
<path d="M1353.75 531.976V519.89H1382.76V531.976C1396.6 544.276 1404.52 561.906 1404.52 580.421V633.497C1404.52 641.507 1398.02 648 1390.01 648H1346.5C1338.49 648 1332 641.507 1332 633.497V580.421C1332 561.906 1339.92 544.276 1353.75 531.976Z" fill="#FA7799"/>
<path d="M1368.16 558.509C1358.53 553.029 1346.93 552.237 1336.65 556.355C1333.58 564.008 1332 572.176 1332 580.421V633.497C1332 641.507 1338.49 648 1346.5 648H1390.01C1398.02 648 1404.52 641.507 1404.52 633.497V580.421C1404.51 573.486 1403.4 566.597 1401.21 560.015C1390.59 564.845 1378.3 564.285 1368.16 558.509Z" fill="#F2F2F2"/>
<path d="M1353.75 508H1382.76C1386.77 508 1390.01 511.247 1390.01 515.252C1390.01 519.256 1386.77 522.503 1382.76 522.503H1353.75C1349.75 522.503 1346.5 519.256 1346.5 515.252C1346.5 511.247 1349.75 508 1353.75 508Z" fill="#F35277"/>
<path d="M1394.85 594.822C1393.51 594.822 1392.43 593.74 1392.43 592.405V589.988C1392.43 588.653 1393.51 587.571 1394.85 587.571C1396.18 587.571 1397.26 588.653 1397.26 589.988V592.405C1397.26 593.74 1396.18 594.822 1394.85 594.822Z" fill="#E9D7DC"/>
<path d="M1394.85 621.411C1393.51 621.411 1392.43 620.329 1392.43 618.994V602.074C1392.43 600.739 1393.51 599.657 1394.85 599.657C1396.18 599.657 1397.26 600.739 1397.26 602.074V618.994C1397.26 620.329 1396.18 621.411 1394.85 621.411Z" fill="#E9D7DC"/>
</g>
<path d="M224 108C224 94.1929 235.193 83 249 83H252V145H224V108Z" fill="#DCB2C5"/>
<rect x="252" y="83" width="78" height="28" fill="#DCB2C5"/>
<path d="M361.04 22.8804H415.36V30.6403H361.04V22.8804Z" fill="#FA7799"/>
<path d="M427 83H446V111H427V83Z" fill="#DCB2C5"/>
<path d="M403 83H416V111H403V83Z" fill="#DCB2C5"/>
<path d="M427 83.0201V110.18C427 111.724 426.386 113.204 425.295 114.295C424.204 115.387 422.723 116 421.18 116C419.636 116 418.156 115.387 417.064 114.295C415.973 113.204 415.36 111.724 415.36 110.18V83.0201C415.36 81.4766 415.973 79.9962 417.064 78.9048C418.156 77.8133 419.636 77.2001 421.18 77.2001C422.723 77.2001 424.204 77.8133 425.295 78.9048C426.386 79.9962 427 81.4766 427 83.0201Z" fill="#DF8596"/>
<path d="M415.36 19.0004C414.157 18.9946 412.982 19.3657 412.001 20.0616C411.02 20.7575 410.281 21.7432 409.889 22.8804C409.654 23.5 409.536 24.1577 409.54 24.8204C409.54 25.9715 409.881 27.0967 410.521 28.0538C411.16 29.0109 412.069 29.7568 413.132 30.1973C414.196 30.6378 415.366 30.7531 416.495 30.5285C417.624 30.304 418.661 29.7497 419.475 28.9357C420.289 28.1218 420.843 27.0848 421.068 25.9558C421.292 24.8268 421.177 23.6566 420.737 22.5932C420.296 21.5297 419.55 20.6208 418.593 19.9812C417.636 19.3417 416.511 19.0004 415.36 19.0004Z" fill="#F35277"/>
<path d="M407.832 63.3874C408.645 64.2013 409.199 65.2379 409.423 66.3662C409.647 67.4945 409.532 68.6639 409.092 69.7267C408.652 70.7896 407.907 71.6981 406.95 72.3377C405.994 72.9773 404.87 73.3192 403.72 73.3202H372.68C371.136 73.3202 369.656 72.707 368.564 71.6156C367.473 70.5241 366.86 69.0438 366.86 67.5002C366.86 65.9567 367.473 64.4763 368.564 63.3849C369.656 62.2934 371.136 61.6802 372.68 61.6802H403.72C404.484 61.6802 405.241 61.8309 405.946 62.1239C406.652 62.4168 407.293 62.8462 407.832 63.3874Z" fill="#DF8596"/>
<path d="M403.72 84.0202V111.18C403.72 111.18 394.02 115.06 388.2 115.06C382.38 115.06 372.68 111.18 372.68 111.18V74.3202H403.72V84.0202Z" fill="#DCB2C5"/>
<path d="M397.9 50.0403V61.6802H378.5V50.0403H382.38H394.02H397.9Z" fill="#DCB2C5"/>
<path d="M397.9 30.6403V38.4003H394.02H382.38H378.5V30.6403H388.2H397.9Z" fill="#FA7799"/>
<path d="M382.38 38.4003H394.02V50.0403H382.38V38.4003Z" fill="#DF8596"/>
<path d="M393.671 22.8804C393.273 21.7463 392.533 20.7638 391.553 20.0686C390.573 19.3734 389.401 19 388.2 19C386.998 19 385.826 19.3734 384.846 20.0686C383.866 20.7638 383.126 21.7463 382.729 22.8804C382.494 23.5 382.376 24.1577 382.38 24.8204C382.38 26.3639 382.993 27.8443 384.084 28.9357C385.176 30.0272 386.656 30.6403 388.2 30.6403C389.743 30.6403 391.224 30.0272 392.315 28.9357C393.407 27.8443 394.02 26.3639 394.02 24.8204C394.024 24.1577 393.905 23.5 393.671 22.8804Z" fill="#F35277"/>
<path d="M361 83H373V111H361V83Z" fill="#DCB2C5"/>
<path d="M366.511 22.8803C366.015 21.5202 365.027 20.3954 363.742 19.7285C362.458 19.0615 360.969 18.9008 359.572 19.2782C358.174 19.6556 356.969 20.5437 356.194 21.7667C355.42 22.9898 355.133 24.4589 355.389 25.8836C355.646 27.3084 356.427 28.5851 357.579 29.4613C358.732 30.3376 360.171 30.7496 361.612 30.616C363.054 30.4824 364.393 29.8128 365.364 28.7397C366.336 27.6665 366.87 26.2679 366.86 24.8203C366.864 24.1577 366.746 23.5 366.511 22.8803Z" fill="#F35277"/>
<path d="M330 83H350V111H330V83Z" fill="#DCB2C5"/>
<path d="M361.04 83.0201V110.18C361.04 111.724 360.427 113.204 359.335 114.295C358.244 115.387 356.763 116 355.22 116C353.676 116 352.196 115.387 351.105 114.295C350.013 113.204 349.4 111.724 349.4 110.18V83.0201C349.4 81.4766 350.013 79.9962 351.105 78.9048C352.196 77.8133 353.676 77.2001 355.22 77.2001C356.763 77.2001 358.244 77.8133 359.335 78.9048C360.427 79.9962 361.04 81.4766 361.04 83.0201Z" fill="#DF8596"/>
<path d="M378.5 30.6403H397.9V34.5203H378.5V30.6403Z" fill="#F35277"/>
<path d="M382.38 38.4003H394.02V42.2803H382.38V38.4003Z" fill="#FA7799"/>
<path d="M372.68 73.3202H403.72V77.2002H372.68V73.3202Z" fill="#DCB2C5"/>
<path d="M335.82 88.8401H339.7V92.7201H335.82V88.8401Z" fill="#E9D7DC"/>
<path d="M432.82 88.8401H440.58V92.7201H432.82V88.8401Z" fill="#E9D7DC"/>
<path d="M388.2 108.24C384.565 108.291 380.962 107.563 377.633 106.106L379.361 102.632C382.156 103.812 385.166 104.4 388.2 104.36C391.234 104.406 394.244 103.811 397.033 102.614L398.767 106.087C395.439 107.551 391.835 108.285 388.2 108.24Z" fill="#E9D7DC"/>
<rect x="446" y="83" width="58" height="28" fill="#DCB2C5"/>
<rect x="56" y="262" width="368" height="224" rx="16" fill="white"/>
<defs>
<filter id="filter0_d" x="40" y="141" width="400" height="519" filterUnits="userSpaceOnUse" color-interpolation-filters="sRGB">
<feFlood flood-opacity="0" result="BackgroundImageFix"/>
<feColorMatrix in="SourceAlpha" type="matrix" values="0 0 0 0 0 0 0 0 0 0 0 0 0 0 0 0 0 0 127 0"/>
<feOffset dy="4"/>
<feGaussianBlur stdDeviation="4"/>
<feColorMatrix type="matrix" values="0 0 0 0 0 0 0 0 0 0 0 0 0 0 0 0 0 0 0.25 0"/>
<feBlend mode="normal" in2="BackgroundImageFix" result="effect1_dropShadow"/>
<feBlend mode="normal" in="SourceGraphic" in2="effect1_dropShadow" result="shape"/>
</filter>
<filter id="filter1_d" x="1328" y="508" width="80.5151" height="148" filterUnits="userSpaceOnUse" color-interpolation-filters="sRGB">
<feFlood flood-opacity="0" result="BackgroundImageFix"/>
<feColorMatrix in="SourceAlpha" type="matrix" values="0 0 0 0 0 0 0 0 0 0 0 0 0 0 0 0 0 0 127 0"/>
<feOffset dy="4"/>
<feGaussianBlur stdDeviation="2"/>
<feColorMatrix type="matrix" values="0 0 0 0 0 0 0 0 0 0 0 0 0 0 0 0 0 0 0.25 0"/>
<feBlend mode="normal" in2="BackgroundImageFix" result="effect1_dropShadow"/>
<feBlend mode="normal" in="SourceGraphic" in2="effect1_dropShadow" result="shape"/>
</filter>
</defs>
</svg>
