<svg xmlns="http://www.w3.org/2000/svg" viewBox="0 0 1440 680" width="1440" height="680">
	<style>
		tspan { white-space:pre }
		.shp0 { fill: #ffffff } 
		.shp1 { fill: #e9d7dc } 
		.shp2 { fill: #df8596 } 
		.shp3 { fill: #8c6168 } 
		.shp4 { fill: #dcb2c5 } 
		.shp5 { fill: #fa7799 } 
		.shp6 { fill: #f2f2f2 } 
		.shp7 { fill: #f35277 } 
	</style>
	<path id="Layer" class="shp0" d="M0 0L1440 0L1440 680L0 680L0 0Z" />
	<g id="Layer">
		<path id="Layer" class="shp1" d="M432 475.81L432 584L48 584L48 259.14C48 254.59 50.65 250.29 55.2 247.44L138.74 195.28C142.14 193.16 146.38 192 150.74 192L329.26 192C333.62 192 337.86 193.16 341.26 195.28L424.8 247.44C429.35 250.29 432 254.59 432 259.14L432 475.81Z" />
		<path id="Layer" class="shp2" d="M151.05 149C151.05 146.79 152.84 145 155.05 145L324.95 145C327.15 145 328.95 146.79 328.95 149L328.95 188C328.95 190.21 327.15 192 324.95 192L155.05 192C152.84 192 151.05 190.21 151.05 188L151.05 149Z" />
		<path id="Layer" class="shp2" d="M432 599.41L432 626.66C432 638.45 423.4 648 412.8 648L67.2 648C56.6 648 48 638.45 48 626.66L48 584L432 584L432 599.41Z" />
	</g>
	<path id="Layer" fill-rule="evenodd" class="shp0" d="M109.11 610.1C108.81 608.34 107.76 607.02 106.45 606.2C105.44 605.6 104.09 605.15 102.74 605.15C101.39 605.15 100.11 605.45 99.17 606.05C98.2 606.65 97.3 607.66 97.3 608.98C97.3 609.61 97.49 610.4 98.05 610.96C98.76 611.64 99.96 612.13 101.5 612.58L106.26 613.92C108.47 614.56 110.61 615.42 111.74 616.59C113.13 618.05 113.5 619.51 113.5 621.65C113.5 623.86 112.41 625.85 110.69 627.24C108.63 628.96 106.08 629.56 103.11 629.56C99.81 629.56 96.74 628.59 94.41 626.11C93.06 624.58 92.39 622.89 92.13 621.27L96.21 620.64C96.44 621.58 96.96 622.85 97.94 623.75C99.29 625.06 101.13 625.85 103.26 625.85C104.88 625.85 106.67 625.48 107.8 624.61C108.89 623.83 109.41 622.77 109.41 621.58C109.41 620.71 109.11 619.85 108.47 619.25C107.69 618.5 106.64 618.16 105.36 617.79L100.38 616.33C98.28 615.73 96.44 615.2 95.09 613.92C93.66 612.58 93.17 610.96 93.17 609.13C93.17 606.61 94.45 604.48 96.4 603.16C98.2 601.92 100.53 601.44 102.78 601.44C104.65 601.48 106.79 601.81 108.51 602.79C110.69 604.02 112.6 606.05 113.31 609.35L109.11 610.1ZM141.47 602L141.47 629L137.57 629L137.57 617.34L124.07 617.34L124.07 629L120.13 629L120.13 602L124.07 602L124.07 613.63L137.57 613.63L137.57 602L141.47 602ZM164.85 622.92L153.75 622.92L151.76 629L147.71 629L156.49 602L162.11 602L170.89 629L166.84 629L164.85 622.92ZM163.61 619.25L159.26 605.98L154.95 619.25L163.61 619.25ZM181.46 602L181.46 625.29L193.69 625.29L193.69 629L177.52 629L177.52 602L181.46 602ZM204.06 602L204.06 625.29L216.29 625.29L216.29 629L200.13 629L200.13 602L204.06 602ZM220.49 615.5C220.45 607.33 225.29 601.4 233.24 601.44C241.34 601.51 245.88 607.1 246.03 615.5C245.95 623.83 241.19 629.56 233.24 629.56C225.25 629.56 220.53 623.67 220.49 615.5ZM241.87 615.5C241.87 609.35 238.94 605.19 233.24 605.19C227.54 605.15 224.62 609.42 224.62 615.5C224.65 621.73 227.54 625.81 233.24 625.85C239.01 625.85 241.83 621.58 241.87 615.5ZM285.27 602L277.43 629L273.53 629L267.72 608.83L261.94 629L258.04 629L250.17 602L254.29 602L259.99 622.44L265.62 602.04L269.74 602L275.44 622.44L281.14 602L285.27 602ZM317.88 629L314.2 629L314.2 610.51L305.47 629L303.67 629L294.97 610.55L294.97 629L291.25 629L291.25 602L294.82 602L304.57 622.33L314.32 602L317.88 602L317.88 629ZM330.33 602L330.33 629L326.39 629L326.39 602L330.33 602ZM356.14 622.06L356.14 602L360.11 602L360.11 629L356.14 629L342.82 608.94L342.82 629L338.85 629L338.85 602L342.82 602L356.14 622.06ZM389.76 615.5C389.76 622.33 386.43 628.06 380.05 628.85C379.07 628.96 377.91 629 376.71 629L368.24 629L368.24 602L376.71 602C377.91 602 379.07 602.04 380.05 602.15C386.43 602.94 389.76 608.67 389.76 615.5ZM385.6 615.5C385.6 610.81 383.95 606.8 379.75 605.94C379.04 605.79 377.84 605.71 376.71 605.71L372.25 605.71L372.25 625.29L376.71 625.29C377.84 625.29 379.04 625.21 379.75 625.06C383.95 624.2 385.6 620.19 385.6 615.5Z" />
	<path id="Layer" class="shp3" d="M496 24L1280 24C1288.85 24 1296 31.15 1296 40L1296 632C1296 640.85 1288.85 648 1280 648L496 648C487.15 648 480 640.85 480 632L480 40C480 31.15 487.15 24 496 24Z" />
	<path id="Layer" class="shp4" d="M1273 470C1273 467.79 1274.79 466 1277 466L1354 466L1354 494L1277 494C1274.79 494 1273 492.21 1273 490L1273 470Z" />
	<path id="Layer" class="shp2" d="M1284.64 466.82L1284.64 493.98C1284.64 495.52 1284.03 497 1282.94 498.1C1281.84 499.19 1280.36 499.8 1278.82 499.8C1277.28 499.8 1275.8 499.19 1274.7 498.1C1273.61 497 1273 495.52 1273 493.98L1273 466.82C1273 465.28 1273.61 463.8 1274.7 462.7C1275.8 461.61 1277.28 461 1278.82 461C1280.36 461 1281.84 461.61 1282.94 462.7C1284.03 463.8 1284.64 465.28 1284.64 466.82Z" />
	<path id="Layer" class="shp1" d="M1303 469L1310.76 469L1310.76 472.88L1303 472.88L1303 469Z" />
	<path id="Layer" class="shp4" d="M1354 466L1357 466C1370.81 466 1382 477.19 1382 491L1382 502C1382 504.21 1380.21 506 1378 506L1358 506C1355.79 506 1354 504.21 1354 502L1354 466Z" />
	<path id="Layer" class="shp1" d="M1369.46 473.53C1371.33 474.7 1372.76 476.51 1373.65 478.84L1370.86 481.17C1370.09 479.25 1368.88 477.75 1367.32 476.77C1365.81 475.72 1363.95 475.21 1361.88 475.28L1362.91 471.8C1365.4 471.69 1367.63 472.28 1369.46 473.53Z" />
	<g id="Layer">
		<path id="Layer" class="shp5" d="M1353.75 531.98L1353.75 519.89L1382.76 519.89L1382.76 531.98C1396.6 544.28 1404.52 561.91 1404.52 580.42L1404.52 633.5C1404.52 641.51 1398.02 648 1390.01 648L1346.5 648C1338.49 648 1332 641.51 1332 633.5L1332 580.42C1332 561.91 1339.92 544.28 1353.75 531.98Z" />
		<path id="Layer" class="shp6" d="M1368.16 558.51C1358.53 553.03 1346.93 552.24 1336.65 556.36C1333.58 564.01 1332 572.18 1332 580.42L1332 633.5C1332 641.51 1338.49 648 1346.5 648L1390.01 648C1398.02 648 1404.52 641.51 1404.52 633.5L1404.52 580.42C1404.51 573.49 1403.4 566.6 1401.21 560.01C1390.59 564.85 1378.3 564.28 1368.16 558.51Z" />
		<path id="Layer" class="shp7" d="M1353.75 508L1382.76 508C1386.77 508 1390.01 511.25 1390.01 515.25C1390.01 519.26 1386.77 522.5 1382.76 522.5L1353.75 522.5C1349.75 522.5 1346.5 519.26 1346.5 515.25C1346.5 511.25 1349.75 508 1353.75 508Z" />
		<path id="Layer" class="shp1" d="M1394.85 594.82C1393.51 594.82 1392.43 593.74 1392.43 592.4L1392.43 589.99C1392.43 588.65 1393.51 587.57 1394.85 587.57C1396.18 587.57 1397.26 588.65 1397.26 589.99L1397.26 592.4C1397.26 593.74 1396.18 594.82 1394.85 594.82Z" />
		<path id="Layer" class="shp1" d="M1394.85 621.41C1393.51 621.41 1392.43 620.33 1392.43 618.99L1392.43 602.07C1392.43 600.74 1393.51 599.66 1394.85 599.66C1396.18 599.66 1397.26 600.74 1397.26 602.07L1397.26 618.99C1397.26 620.33 1396.18 621.41 1394.85 621.41Z" />
	</g>
	<path id="Layer" class="shp4" d="M538 95L541 95C554.81 95 566 106.19 566 120L566 139C566 141.21 564.21 143 562 143L542 143C539.79 143 538 141.21 538 139L538 95Z" />
	<path id="Layer" class="shp4" d="M226 120C226 106.19 237.19 95 251 95L254 95L254 145L226 145L226 120Z" />
	<path id="Layer" class="shp4" d="M254 95L364 95L364 123L254 123L254 95Z" />
	<path id="Layer" class="shp5" d="M395.04 34.88L449.36 34.88L449.36 42.64L395.04 42.64L395.04 34.88Z" />
	<path id="Layer" class="shp4" d="M461 95L480 95L480 123L461 123L461 95Z" />
	<path id="Layer" class="shp4" d="M437 95L450 95L450 123L437 123L437 95Z" />
	<path id="Layer" class="shp2" d="M461 95.02L461 122.18C461 123.72 460.39 125.2 459.3 126.3C458.2 127.39 456.72 128 455.18 128C453.64 128 452.16 127.39 451.06 126.3C449.97 125.2 449.36 123.72 449.36 122.18L449.36 95.02C449.36 93.48 449.97 92 451.06 90.9C452.16 89.81 453.64 89.2 455.18 89.2C456.72 89.2 458.2 89.81 459.3 90.9C460.39 92 461 93.48 461 95.02Z" />
	<path id="Layer" class="shp7" d="M449.36 31C448.16 30.99 446.98 31.37 446 32.06C445.02 32.76 444.28 33.74 443.89 34.88C443.65 35.5 443.54 36.16 443.54 36.82C443.54 37.97 443.88 39.1 444.52 40.05C445.16 41.01 446.07 41.76 447.13 42.2C448.2 42.64 449.37 42.75 450.5 42.53C451.62 42.3 452.66 41.75 453.48 40.94C454.29 40.12 454.84 39.08 455.07 37.96C455.29 36.83 455.18 35.66 454.74 34.59C454.3 33.53 453.55 32.62 452.59 31.98C451.64 31.34 450.51 31 449.36 31Z" />
	<path id="Layer" class="shp2" d="M441.83 75.39C442.64 76.2 443.2 77.24 443.42 78.37C443.65 79.49 443.53 80.66 443.09 81.73C442.65 82.79 441.91 83.7 440.95 84.34C439.99 84.98 438.87 85.32 437.72 85.32L406.68 85.32C405.14 85.32 403.66 84.71 402.56 83.62C401.47 82.52 400.86 81.04 400.86 79.5C400.86 77.96 401.47 76.48 402.56 75.38C403.66 74.29 405.14 73.68 406.68 73.68L437.72 73.68C438.48 73.68 439.24 73.83 439.95 74.12C440.65 74.42 441.29 74.85 441.83 75.39Z" />
	<path id="Layer" class="shp4" d="M437.72 96.02L437.72 123.18C437.72 123.18 428.02 127.06 422.2 127.06C416.38 127.06 406.68 123.18 406.68 123.18L406.68 86.32L437.72 86.32L437.72 96.02Z" />
	<path id="Layer" class="shp4" d="M431.9 62.04L431.9 73.68L412.5 73.68L412.5 62.04L416.38 62.04L428.02 62.04L431.9 62.04Z" />
	<path id="Layer" class="shp5" d="M431.9 42.64L431.9 50.4L428.02 50.4L416.38 50.4L412.5 50.4L412.5 42.64L422.2 42.64L431.9 42.64Z" />
	<path id="Layer" class="shp2" d="M416.38 50.4L428.02 50.4L428.02 62.04L416.38 62.04L416.38 50.4Z" />
	<path id="Layer" class="shp7" d="M427.67 34.88C427.27 33.75 426.53 32.76 425.55 32.07C424.57 31.37 423.4 31 422.2 31C421 31 419.83 31.37 418.85 32.07C417.87 32.76 417.13 33.75 416.73 34.88C416.49 35.5 416.38 36.16 416.38 36.82C416.38 38.36 416.99 39.84 418.08 40.94C419.18 42.03 420.66 42.64 422.2 42.64C423.74 42.64 425.22 42.03 426.31 40.94C427.41 39.84 428.02 38.36 428.02 36.82C428.02 36.16 427.9 35.5 427.67 34.88Z" />
	<path id="Layer" class="shp4" d="M395 95L407 95L407 123L395 123L395 95Z" />
	<path id="Layer" class="shp7" d="M400.51 34.88C400.01 33.52 399.03 32.4 397.74 31.73C396.46 31.06 394.97 30.9 393.57 31.28C392.17 31.66 390.97 32.54 390.19 33.77C389.42 34.99 389.13 36.46 389.39 37.88C389.65 39.31 390.43 40.59 391.58 41.46C392.73 42.34 394.17 42.75 395.61 42.62C397.05 42.48 398.39 41.81 399.36 40.74C400.34 39.67 400.87 38.27 400.86 36.82C400.86 36.16 400.75 35.5 400.51 34.88Z" />
	<path id="Layer" class="shp4" d="M364 95L384 95L384 123L364 123L364 95Z" />
	<path id="Layer" class="shp2" d="M395.04 95.02L395.04 122.18C395.04 123.72 394.43 125.2 393.33 126.3C392.24 127.39 390.76 128 389.22 128C387.68 128 386.2 127.39 385.11 126.3C384.01 125.2 383.4 123.72 383.4 122.18L383.4 95.02C383.4 93.48 384.01 92 385.11 90.9C386.2 89.81 387.68 89.2 389.22 89.2C390.76 89.2 392.24 89.81 393.33 90.9C394.43 92 395.04 93.48 395.04 95.02Z" />
	<path id="Layer" class="shp7" d="M412.5 42.64L431.9 42.64L431.9 46.52L412.5 46.52L412.5 42.64Z" />
	<path id="Layer" class="shp5" d="M416.38 50.4L428.02 50.4L428.02 54.28L416.38 54.28L416.38 50.4Z" />
	<path id="Layer" class="shp4" d="M406.68 85.32L437.72 85.32L437.72 89.2L406.68 89.2L406.68 85.32Z" />
	<path id="Layer" class="shp1" d="M369.82 100.84L373.7 100.84L373.7 104.72L369.82 104.72L369.82 100.84Z" />
	<path id="Layer" class="shp1" d="M466.82 100.84L474.58 100.84L474.58 104.72L466.82 104.72L466.82 100.84Z" />
	<path id="Layer" class="shp1" d="M422.2 120.24C418.56 120.29 414.96 119.56 411.63 118.11L413.36 114.63C416.16 115.81 419.17 116.4 422.2 116.36C425.23 116.41 428.24 115.81 431.03 114.61L432.77 118.09C429.44 119.55 425.83 120.28 422.2 120.24Z" />
	<path id="Layer" class="shp4" d="M480 95L538 95L538 123L480 123L480 95Z" />
	<path id="Layer" class="shp0" d="M72 262L408 262C416.85 262 424 269.15 424 278L424 470C424 478.85 416.85 486 408 486L72 486C63.15 486 56 478.85 56 470L56 278C56 269.15 63.15 262 72 262Z" />
	<g id="Layer">
	</g>
</svg>