<svg width="204" height="76" viewBox="0 0 204 76" fill="none" xmlns="http://www.w3.org/2000/svg">
<g filter="url(#filter0_di)">
<path d="M10 34C10 18.536 22.536 6 38 6H166C181.464 6 194 18.536 194 34C194 49.464 181.464 62 166 62H38C22.536 62 10 49.464 10 34Z" fill="#FA7799"/>
</g>
<path d="M85.7083 42L82.875 36.1875C84.5833 35.4583 85.4375 33.8125 85.4375 31.8125C85.4375 29.375 84.1875 27.4792 81.6667 27.0833C81.2917 27.0208 80.8125 27 80.5208 27H74.4583V42H76.6458V36.6042H80.5208H80.6042L83.2292 42H85.7083ZM76.6458 29.0625H80.4375C80.7083 29.0625 81.0833 29.0833 81.375 29.1458C82.7292 29.4792 83.2292 30.7083 83.2292 31.8125C83.2292 32.9167 82.7292 34.1458 81.375 34.4583C81.0833 34.5417 80.7083 34.5625 80.4375 34.5625H76.6458V29.0625ZM98.7667 42H101.017L96.1417 27H93.0167L88.1417 42H90.3917L91.4958 38.625H97.6625L98.7667 42ZM92.1625 36.5833L94.5583 29.2083L96.975 36.5833H92.1625ZM106.703 27H104.494V42H106.703V30.8542L114.098 42H116.307V27H114.098V38.1458L106.703 27ZM132.779 34.5C132.779 38.2917 130.925 41.4792 127.383 41.9167C126.842 41.9792 126.196 42 125.529 42H120.821V27H125.529C126.196 27 126.842 27.0208 127.383 27.0833C130.925 27.5208 132.779 30.7083 132.779 34.5ZM130.467 34.5C130.467 31.8958 129.55 29.6667 127.217 29.1875C126.821 29.1042 126.154 29.0625 125.529 29.0625H123.05V39.9375H125.529C126.154 39.9375 126.821 39.8958 127.217 39.8125C129.55 39.3333 130.467 37.1042 130.467 34.5ZM143.274 42.3125C147.69 42.3125 150.336 39.125 150.378 34.5C150.295 29.8333 147.774 26.7292 143.274 26.6875C138.857 26.6667 136.17 29.9583 136.19 34.5C136.211 39.0417 138.836 42.3125 143.274 42.3125ZM143.274 40.25C140.107 40.2292 138.503 37.9583 138.482 34.5C138.482 31.125 140.107 28.75 143.274 28.7708C146.44 28.7708 148.065 31.0833 148.065 34.5C148.045 37.875 146.482 40.25 143.274 40.25ZM169.066 27H167.087L161.671 38.2917L156.254 27H154.275V42H156.337V31.75L161.171 42H162.171L167.025 31.7292V42H169.066V27Z" fill="white"/>
<g filter="url(#filter1_d)">
<path d="M47.9077 20.7254L38.0736 18.0671C37.0404 17.7878 35.9784 18.4064 35.7015 19.4487L33.0665 29.37C32.7896 30.4124 33.4028 31.4838 34.436 31.7631L44.2701 34.4215C45.3033 34.7008 46.3653 34.0822 46.6422 33.0398L49.2772 23.1186C49.5541 22.0762 48.9409 21.0048 47.9077 20.7254Z" fill="white"/>
<path d="M48.7759 21.2314C48.1302 21.4066 47.592 21.9144 47.4066 22.6128L45.3146 30.4895C45.0146 31.6187 43.8641 32.2889 42.7448 31.9863L34.9374 29.8758C34.2448 29.6884 33.54 29.905 33.0668 30.3815C33.2405 31.0329 33.7437 31.5761 34.4361 31.7631L44.2702 34.4215C45.3034 34.7008 46.3654 34.0822 46.6423 33.0398L49.2773 23.1186C49.4629 22.4201 49.2482 21.7088 48.7759 21.2314Z" fill="#E0E0E0"/>
<path d="M56.9335 45.2509L54.2985 35.3297C54.0217 34.2873 52.9596 33.6687 51.9264 33.948L42.0924 36.6064C41.0591 36.8857 40.446 37.9571 40.7229 38.9995L43.3579 48.9208C43.6348 49.9632 44.6968 50.5818 45.73 50.3024L55.5641 47.644C56.5971 47.3648 57.2104 46.2934 56.9335 45.2509Z" fill="white"/>
<path d="M54.2985 35.3297C54.1129 34.6312 53.5747 34.1235 52.929 33.9483C52.4566 34.4258 52.2421 35.137 52.4276 35.8354L54.5196 43.712C54.8195 44.8413 54.1553 46.002 53.0359 46.3046L45.2285 48.4152C44.5362 48.6023 44.033 49.1454 43.8593 49.7968C44.3326 50.2733 45.0375 50.4898 45.7299 50.3026L55.5639 47.6442C56.5972 47.3649 57.2103 46.2935 56.9335 45.2511L54.2985 35.3297Z" fill="#E0E0E0"/>
<path d="M50.8814 40.0008C51.6836 40.0008 52.334 39.3447 52.334 38.5353C52.334 37.7259 51.6836 37.0698 50.8814 37.0698C50.0791 37.0698 49.4288 37.7259 49.4288 38.5353C49.4288 39.3447 50.0791 40.0008 50.8814 40.0008Z" fill="#FA7799"/>
<path d="M46.7726 47.1799C47.5748 47.1799 48.2252 46.5238 48.2252 45.7144C48.2252 44.905 47.5748 44.2489 46.7726 44.2489C45.9703 44.2489 45.32 44.905 45.32 45.7144C45.32 46.5238 45.9703 47.1799 46.7726 47.1799Z" fill="#FA7799"/>
<path d="M48.8281 43.5909C49.6304 43.5909 50.2807 42.9348 50.2807 42.1254C50.2807 41.3161 49.6304 40.6599 48.8281 40.6599C48.0259 40.6599 47.3755 41.3161 47.3755 42.1254C47.3755 42.9348 48.0259 43.5909 48.8281 43.5909Z" fill="#FA7799"/>
<path d="M39.1171 24.1205C39.9194 24.1205 40.5697 23.4644 40.5697 22.655C40.5697 21.8457 39.9194 21.1896 39.1171 21.1896C38.3149 21.1896 37.6645 21.8457 37.6645 22.655C37.6645 23.4644 38.3149 24.1205 39.1171 24.1205Z" fill="#FA7799"/>
<path d="M44.7302 25.6372C45.5324 25.6372 46.1828 24.9811 46.1828 24.1717C46.1828 23.3623 45.5324 22.7062 44.7302 22.7062C43.9279 22.7062 43.2776 23.3623 43.2776 24.1717C43.2776 24.9811 43.9279 25.6372 44.7302 25.6372Z" fill="#FA7799"/>
<path d="M37.6135 29.7823C38.4157 29.7823 39.0661 29.1262 39.0661 28.3168C39.0661 27.5075 38.4157 26.8513 37.6135 26.8513C36.8112 26.8513 36.1609 27.5075 36.1609 28.3168C36.1609 29.1262 36.8112 29.7823 37.6135 29.7823Z" fill="#FA7799"/>
<path d="M43.2257 31.3001C44.0279 31.3001 44.6783 30.644 44.6783 29.8346C44.6783 29.0252 44.0279 28.3691 43.2257 28.3691C42.4234 28.3691 41.7731 29.0252 41.7731 29.8346C41.7731 30.644 42.4234 31.3001 43.2257 31.3001Z" fill="#FA7799"/>
</g>
<defs>
<filter id="filter0_di" x="0" y="0" width="204" height="76" filterUnits="userSpaceOnUse" color-interpolation-filters="sRGB">
<feFlood flood-opacity="0" result="BackgroundImageFix"/>
<feColorMatrix in="SourceAlpha" type="matrix" values="0 0 0 0 0 0 0 0 0 0 0 0 0 0 0 0 0 0 127 0"/>
<feOffset dy="4"/>
<feGaussianBlur stdDeviation="5"/>
<feColorMatrix type="matrix" values="0 0 0 0 0 0 0 0 0 0 0 0 0 0 0 0 0 0 0.25 0"/>
<feBlend mode="normal" in2="BackgroundImageFix" result="effect1_dropShadow"/>
<feBlend mode="normal" in="SourceGraphic" in2="effect1_dropShadow" result="shape"/>
<feColorMatrix in="SourceAlpha" type="matrix" values="0 0 0 0 0 0 0 0 0 0 0 0 0 0 0 0 0 0 127 0" result="hardAlpha"/>
<feOffset dx="-2" dy="-4"/>
<feGaussianBlur stdDeviation="1"/>
<feComposite in2="hardAlpha" operator="arithmetic" k2="-1" k3="1"/>
<feColorMatrix type="matrix" values="0 0 0 0 0.952941 0 0 0 0 0.321569 0 0 0 0 0.466667 0 0 0 1 0"/>
<feBlend mode="normal" in2="shape" result="effect2_innerShadow"/>
</filter>
<filter id="filter1_d" x="29" y="18" width="32" height="40.3696" filterUnits="userSpaceOnUse" color-interpolation-filters="sRGB">
<feFlood flood-opacity="0" result="BackgroundImageFix"/>
<feColorMatrix in="SourceAlpha" type="matrix" values="0 0 0 0 0 0 0 0 0 0 0 0 0 0 0 0 0 0 127 0"/>
<feOffset dy="4"/>
<feGaussianBlur stdDeviation="2"/>
<feColorMatrix type="matrix" values="0 0 0 0 0 0 0 0 0 0 0 0 0 0 0 0 0 0 0.25 0"/>
<feBlend mode="normal" in2="BackgroundImageFix" result="effect1_dropShadow"/>
<feBlend mode="normal" in="SourceGraphic" in2="effect1_dropShadow" result="shape"/>
</filter>
</defs>
</svg>
