<svg width="84" height="76" viewBox="0 0 84 76" fill="none" xmlns="http://www.w3.org/2000/svg">
<g filter="url(#filter0_di)">
<rect x="10" y="6" width="64" height="56" rx="28" fill="#FA7799"/>
</g>
<g filter="url(#filter1_d)">
<path d="M49.4871 23.8773C48.1392 22.531 46.5539 21.5731 44.8635 21V24.6199C45.6774 25.0251 46.4488 25.5524 47.1253 26.2306C50.5044 29.6114 50.5044 35.1082 47.1253 38.4874C43.7462 41.8614 38.2528 41.8614 34.8685 38.4874C31.4928 35.1049 31.4928 29.6114 34.8685 26.2306C34.877 26.2204 34.9042 26.2035 34.916 26.1882H34.9194L36.9218 28.1872L36.9099 21.8393L30.5654 21.8308L32.5593 23.8247C32.5474 23.845 32.5288 23.8654 32.5135 23.8773C27.8288 28.5602 27.8288 36.1578 32.5135 40.8407C37.2049 45.5288 44.7974 45.5288 49.4871 40.8407C54.1684 36.1578 54.1735 28.5602 49.4871 23.8773Z" fill="white"/>
</g>
<defs>
<filter id="filter0_di" x="0" y="0" width="84" height="76" filterUnits="userSpaceOnUse" color-interpolation-filters="sRGB">
<feFlood flood-opacity="0" result="BackgroundImageFix"/>
<feColorMatrix in="SourceAlpha" type="matrix" values="0 0 0 0 0 0 0 0 0 0 0 0 0 0 0 0 0 0 127 0"/>
<feOffset dy="4"/>
<feGaussianBlur stdDeviation="5"/>
<feColorMatrix type="matrix" values="0 0 0 0 0 0 0 0 0 0 0 0 0 0 0 0 0 0 0.25 0"/>
<feBlend mode="normal" in2="BackgroundImageFix" result="effect1_dropShadow"/>
<feBlend mode="normal" in="SourceGraphic" in2="effect1_dropShadow" result="shape"/>
<feColorMatrix in="SourceAlpha" type="matrix" values="0 0 0 0 0 0 0 0 0 0 0 0 0 0 0 0 0 0 127 0" result="hardAlpha"/>
<feOffset dx="-2" dy="-4"/>
<feGaussianBlur stdDeviation="1"/>
<feComposite in2="hardAlpha" operator="arithmetic" k2="-1" k3="1"/>
<feColorMatrix type="matrix" values="0 0 0 0 0.952941 0 0 0 0 0.321569 0 0 0 0 0.466667 0 0 0 1 0"/>
<feBlend mode="normal" in2="shape" result="effect2_innerShadow"/>
</filter>
<filter id="filter1_d" x="25" y="21" width="32" height="31.3568" filterUnits="userSpaceOnUse" color-interpolation-filters="sRGB">
<feFlood flood-opacity="0" result="BackgroundImageFix"/>
<feColorMatrix in="SourceAlpha" type="matrix" values="0 0 0 0 0 0 0 0 0 0 0 0 0 0 0 0 0 0 127 0"/>
<feOffset dy="4"/>
<feGaussianBlur stdDeviation="2"/>
<feColorMatrix type="matrix" values="0 0 0 0 0 0 0 0 0 0 0 0 0 0 0 0 0 0 0.25 0"/>
<feBlend mode="normal" in2="BackgroundImageFix" result="effect1_dropShadow"/>
<feBlend mode="normal" in="SourceGraphic" in2="effect1_dropShadow" result="shape"/>
</filter>
</defs>
</svg>
