<svg width="356" height="68" viewBox="0 0 356 68" fill="none" xmlns="http://www.w3.org/2000/svg">
<g filter="url(#filter0_d)">
<path d="M10 22C10 13.1634 17.1634 6 26 6H330C338.837 6 346 13.1634 346 22V38C346 46.8366 338.837 54 330 54H26C17.1634 54 10 46.8366 10 38V22Z" fill="#FA7799"/>
</g>
<path d="M308.603 26.2929C308.95 25.9458 309.489 25.9072 309.879 26.1772L310.017 26.2929L315.31 31.586L320.603 26.2929C320.95 25.9458 321.489 25.9072 321.879 26.1772L322.017 26.2929C322.365 26.64 322.403 27.1789 322.133 27.5686L322.017 27.7071L316.017 33.7071C315.67 34.0542 315.131 34.0928 314.742 33.8228L314.603 33.7071L308.603 27.7071C308.213 27.3166 308.213 26.6834 308.603 26.2929Z" fill="white"/>
<path d="M47.4167 29.5C47.4167 33.2917 45.5625 36.4792 42.0208 36.9167C41.4792 36.9792 40.8333 37 40.1667 37H35.4583V22H40.1667C40.8333 22 41.4792 22.0208 42.0208 22.0833C45.5625 22.5208 47.4167 25.7083 47.4167 29.5ZM45.1042 29.5C45.1042 26.8958 44.1875 24.6667 41.8542 24.1875C41.4583 24.1042 40.7917 24.0625 40.1667 24.0625H37.6875V34.9375H40.1667C40.7917 34.9375 41.4583 34.8958 41.8542 34.8125C44.1875 34.3333 45.1042 32.1042 45.1042 29.5ZM53.1612 31.9792H61.557C61.7654 28.1458 59.9529 25.4375 56.3279 25.4375C52.9529 25.4375 50.8279 27.8542 50.8279 31.4792C50.8279 34.875 52.9945 37.3125 56.4529 37.3125C58.5779 37.3125 60.5362 36.1667 61.3904 34.1458L59.2654 33.4583C58.7029 34.6458 57.6612 35.25 56.3279 35.25C54.4112 35.25 53.3279 34 53.1612 31.9792ZM56.3279 27.375C58.2654 27.3542 59.0987 28.4167 59.307 30.2292H53.2237C53.4945 28.5 54.4529 27.3542 56.3279 27.375ZM70.7247 25.4375C69.3289 25.4375 68.2247 25.9167 67.4122 26.7708V25.75H65.4747V42H67.6622V36.2083C68.4539 36.9167 69.4956 37.3125 70.7664 37.3125C73.9122 37.3125 75.8706 34.75 75.8706 31.375C75.8706 27.9792 73.8914 25.4375 70.7247 25.4375ZM70.4747 35.3333C68.3289 35.3333 67.4122 33.6875 67.4122 31.375C67.4122 29.0208 68.3497 27.4167 70.3914 27.4167C72.5581 27.4167 73.5581 29.1667 73.5581 31.375C73.5581 33.6042 72.5581 35.3333 70.4747 35.3333ZM82.8534 27.5H86.2076V25.75H82.8534V22.625H80.6867V25.75H78.5201V27.5H80.6867V32.5833C80.6867 33.8125 80.5826 34.8125 81.1242 35.6667C81.6451 36.5625 82.3326 36.9167 83.3534 37.0833C84.1242 37.2083 85.3951 37.2083 86.2076 37V35.1458C85.6242 35.25 84.9367 35.2917 84.3534 35.2292C83.8534 35.1875 83.3534 34.9583 83.0826 34.4792C82.8117 34.0417 82.8534 33.375 82.8534 32.4583V27.5ZM98.7841 26.5C97.7633 25.6042 96.5133 25.375 95.3049 25.4583C94.2841 25.5208 93.1799 25.8958 92.4508 26.7083L92.0966 27.125V22H90.1591V37H92.3466V32.0625C92.3466 31.25 92.3466 30.3958 92.4924 29.7708C92.6174 29.0833 92.9299 28.4792 93.4091 28.1042C93.8674 27.7292 94.4299 27.5417 95.0549 27.5C95.8466 27.4792 96.5341 27.6875 97.0133 28.125C97.8883 28.875 98.0549 30.1875 98.0549 31.625V37H100.263V31.5417C100.284 29.6667 100.159 27.7083 98.7841 26.5ZM115.061 23.4792H116.373V21.6875H114.957C114.123 21.6875 112.936 21.6667 112.082 22.625C111.373 23.3958 111.353 24.5 111.353 25.3542V25.75H109.498V27.5H111.353V37H113.54V27.5H116.373V25.75H113.54V24.9375C113.54 24.0208 114.04 23.4792 115.061 23.4792ZM120.167 21.7292V23.8333H122.355V21.7292H120.167ZM120.167 25.75H122.355V37H120.167V25.75ZM130.066 26.3958C129.607 26.7292 129.274 27.125 129.024 27.5833V25.75H127.086V37H129.274V31.5833C129.274 30.0208 129.628 28.8333 130.711 28.1458C131.441 27.6458 132.42 27.6042 133.149 27.7917V25.75C132.149 25.5625 130.92 25.75 130.066 26.3958ZM145.136 28.75C144.865 26.6458 142.886 25.4375 140.407 25.4375C138.157 25.4375 136.052 26.5417 136.052 28.7292C136.052 30.3542 137.136 31.25 138.677 31.6875L141.219 32.3958C142.24 32.6875 142.948 33 142.948 33.875C142.948 34.875 141.99 35.3958 140.802 35.3958C139.407 35.3958 138.219 34.7917 137.927 33.5L135.698 33.8542C136.136 36.2708 138.094 37.3125 140.719 37.3125C143.261 37.3125 145.198 36.0625 145.198 33.7708C145.198 31.8958 143.969 31.0625 141.761 30.5C140.844 30.2708 140.219 30.1042 139.677 29.9375C138.761 29.6875 138.24 29.3125 138.24 28.6458C138.24 27.8333 139.198 27.3125 140.448 27.3542C141.719 27.3958 142.719 27.9792 142.907 29.1458L145.136 28.75ZM152.178 27.5H155.533V25.75H152.178V22.625H150.012V25.75H147.845V27.5H150.012V32.5833C150.012 33.8125 149.908 34.8125 150.449 35.6667C150.97 36.5625 151.658 36.9167 152.678 37.0833C153.449 37.2083 154.72 37.2083 155.533 37V35.1458C154.949 35.25 154.262 35.2917 153.678 35.2292C153.178 35.1875 152.678 34.9583 152.408 34.4792C152.137 34.0417 152.178 33.375 152.178 32.4583V27.5ZM174.057 28.75C173.786 26.6458 171.807 25.4375 169.328 25.4375C167.078 25.4375 164.973 26.5417 164.973 28.7292C164.973 30.3542 166.057 31.25 167.598 31.6875L170.14 32.3958C171.161 32.6875 171.869 33 171.869 33.875C171.869 34.875 170.911 35.3958 169.723 35.3958C168.328 35.3958 167.14 34.7917 166.848 33.5L164.619 33.8542C165.057 36.2708 167.015 37.3125 169.64 37.3125C172.182 37.3125 174.119 36.0625 174.119 33.7708C174.119 31.8958 172.89 31.0625 170.682 30.5C169.765 30.2708 169.14 30.1042 168.598 29.9375C167.682 29.6875 167.161 29.3125 167.161 28.6458C167.161 27.8333 168.119 27.3125 169.369 27.3542C170.64 27.3958 171.64 27.9792 171.828 29.1458L174.057 28.75ZM179.724 31.9792H188.12C188.329 28.1458 186.516 25.4375 182.891 25.4375C179.516 25.4375 177.391 27.8542 177.391 31.4792C177.391 34.875 179.558 37.3125 183.016 37.3125C185.141 37.3125 187.099 36.1667 187.954 34.1458L185.829 33.4583C185.266 34.6458 184.224 35.25 182.891 35.25C180.974 35.25 179.891 34 179.724 31.9792ZM182.891 27.375C184.829 27.3542 185.662 28.4167 185.87 30.2292H179.787C180.058 28.5 181.016 27.3542 182.891 27.375ZM200.969 37V30.1875C200.969 29.4792 200.927 28.8333 200.74 28.2708C200.177 26.4375 198.677 25.4375 196.407 25.4375C193.948 25.4375 192.261 26.7292 191.615 28.5625L193.615 29.1667C194.032 27.9583 195.073 27.4583 196.344 27.4583C197.719 27.4583 198.719 28.1667 198.802 29.7292C196.886 30 195.011 30.1875 193.49 30.75C192.032 31.25 191.198 32.2917 191.198 33.8542C191.198 35.9375 192.698 37.3125 194.907 37.3125C196.844 37.3125 198.094 36.7083 199.052 35.3958V37H200.969ZM198.386 33.8958C197.844 34.9167 196.677 35.5417 195.344 35.5417C194.073 35.5417 193.344 34.8125 193.344 33.8958C193.344 33 194.032 32.4792 195.052 32.2083C196.136 31.8958 197.136 31.7917 198.802 31.5417C198.802 32.1667 198.782 33.2083 198.386 33.8958ZM208.258 26.3958C207.799 26.7292 207.466 27.125 207.216 27.5833V25.75H205.279V37H207.466V31.5833C207.466 30.0208 207.82 28.8333 208.904 28.1458C209.633 27.6458 210.612 27.6042 211.341 27.7917V25.75C210.341 25.5625 209.112 25.75 208.258 26.3958ZM224.245 28.875C223.682 26.75 221.807 25.4375 219.349 25.4375C215.953 25.4375 213.911 27.8958 213.89 31.375C213.911 34.7917 215.87 37.3125 219.328 37.3125C221.745 37.3125 223.495 36.1042 224.245 33.9167L222.015 33.375C221.578 34.6042 220.724 35.25 219.328 35.25C217.265 35.25 216.224 33.7083 216.203 31.375C216.224 29.125 217.182 27.5 219.328 27.5C220.578 27.5 221.64 28.2292 222.078 29.4792L224.245 28.875ZM236.576 26.5C235.555 25.6042 234.305 25.375 233.097 25.4583C232.076 25.5208 230.972 25.8958 230.243 26.7083L229.889 27.125V22H227.951V37H230.139V32.0625C230.139 31.25 230.139 30.3958 230.285 29.7708C230.41 29.0833 230.722 28.4792 231.201 28.1042C231.66 27.7292 232.222 27.5417 232.847 27.5C233.639 27.4792 234.326 27.6875 234.805 28.125C235.68 28.875 235.847 30.1875 235.847 31.625V37H238.055V31.5417C238.076 29.6667 237.951 27.7083 236.576 26.5Z" fill="white"/>
<defs>
<filter id="filter0_d" x="0" y="0" width="356" height="68" filterUnits="userSpaceOnUse" color-interpolation-filters="sRGB">
<feFlood flood-opacity="0" result="BackgroundImageFix"/>
<feColorMatrix in="SourceAlpha" type="matrix" values="0 0 0 0 0 0 0 0 0 0 0 0 0 0 0 0 0 0 127 0"/>
<feOffset dy="4"/>
<feGaussianBlur stdDeviation="5"/>
<feColorMatrix type="matrix" values="0 0 0 0 0 0 0 0 0 0 0 0 0 0 0 0 0 0 0.08 0"/>
<feBlend mode="normal" in2="BackgroundImageFix" result="effect1_dropShadow"/>
<feBlend mode="normal" in="SourceGraphic" in2="effect1_dropShadow" result="shape"/>
</filter>
</defs>
</svg>
