<svg width="336" height="71" viewBox="0 0 336 71" fill="none" xmlns="http://www.w3.org/2000/svg">
<path d="M0.5 16C0.5 7.43959 7.43959 0.5 16 0.5H320C328.56 0.5 335.5 7.43959 335.5 16V32C335.5 40.5604 328.56 47.5 320 47.5H16C7.43959 47.5 0.5 40.5604 0.5 32V16Z" fill="white" stroke="#FA7799"/>
<rect width="88" height="48" rx="16" fill="#FA7799"/>
<path d="M25.9167 21.2667C25.6 19.8 24.75 18.9 23.7833 18.35C23.0167 17.9167 22.0667 17.7667 21.2333 17.75C20.2333 17.75 19.2 17.9667 18.4 18.5167C17.5333 19.1 16.9667 20.05 16.9667 21.1667C16.9667 21.9833 17.1833 22.7 17.8167 23.3C18.4167 23.8667 19.2333 24.1 20.1667 24.3667L22.3833 25.0167C22.95 25.1833 23.4167 25.3333 23.7667 25.6667C24.05 25.9333 24.1833 26.3167 24.1833 26.7C24.1833 27.2333 23.95 27.7 23.4667 28.05C22.9667 28.4333 22.1667 28.6 21.45 28.6C20.5 28.6 19.6833 28.25 19.0833 27.6667C18.65 27.2667 18.4167 26.7 18.3167 26.2833L16.5 26.5667C16.6167 27.2833 16.9167 28.0333 17.5167 28.7167C18.55 29.8167 19.9167 30.25 21.3833 30.25C22.7 30.25 23.8333 29.9833 24.75 29.2167C25.5167 28.6 26 27.7167 26 26.7333C26 25.7833 25.8333 25.1333 25.2167 24.4833C24.7167 23.9667 23.7667 23.5833 22.7833 23.3L20.6667 22.7C19.9833 22.5 19.45 22.2833 19.1333 21.9833C18.8833 21.7333 18.8 21.3833 18.8 21.1C18.8 20.5167 19.2 20.0667 19.6333 19.8C20.05 19.5333 20.6167 19.4 21.2167 19.4C21.8167 19.4 22.4167 19.6 22.8667 19.8667C23.45 20.2333 23.9167 20.8167 24.05 21.6L25.9167 21.2667ZM33.1467 20.75C32.03 20.75 31.1467 21.1333 30.4967 21.8167V21H28.9467V34H30.6967V29.3667C31.33 29.9333 32.1633 30.25 33.18 30.25C35.6967 30.25 37.2633 28.2 37.2633 25.5C37.2633 22.7833 35.68 20.75 33.1467 20.75ZM32.9467 28.6667C31.23 28.6667 30.4967 27.35 30.4967 25.5C30.4967 23.6167 31.2467 22.3333 32.88 22.3333C34.6133 22.3333 35.4133 23.7333 35.4133 25.5C35.4133 27.2833 34.6133 28.6667 32.9467 28.6667ZM47.6996 30V24.55C47.6996 23.9833 47.6663 23.4667 47.5162 23.0167C47.0662 21.55 45.8663 20.75 44.0496 20.75C42.0829 20.75 40.7329 21.7833 40.2162 23.25L41.8162 23.7333C42.1496 22.7667 42.9829 22.3667 43.9996 22.3667C45.0996 22.3667 45.8996 22.9333 45.9662 24.1833C44.4329 24.4 42.9329 24.55 41.7162 25C40.5496 25.4 39.8829 26.2333 39.8829 27.4833C39.8829 29.15 41.0829 30.25 42.8496 30.25C44.3996 30.25 45.3996 29.7667 46.1662 28.7167V30H47.6996ZM45.6329 27.5167C45.1996 28.3333 44.2662 28.8333 43.1996 28.8333C42.1829 28.8333 41.5996 28.25 41.5996 27.5167C41.5996 26.8 42.1496 26.3833 42.9662 26.1667C43.8329 25.9167 44.6329 25.8333 45.9662 25.6333C45.9662 26.1333 45.9496 26.9667 45.6329 27.5167ZM58.9306 23.5C58.4806 21.8 56.9806 20.75 55.014 20.75C52.2973 20.75 50.664 22.7167 50.6473 25.5C50.664 28.2333 52.2306 30.25 54.9973 30.25C56.9306 30.25 58.3306 29.2833 58.9306 27.5333L57.1473 27.1C56.7973 28.0833 56.114 28.6 54.9973 28.6C53.3473 28.6 52.514 27.3667 52.4973 25.5C52.514 23.7 53.2806 22.4 54.9973 22.4C55.9973 22.4 56.8473 22.9833 57.1973 23.9833L58.9306 23.5ZM63.0127 25.9833H69.7294C69.896 22.9167 68.446 20.75 65.546 20.75C62.846 20.75 61.146 22.6833 61.146 25.5833C61.146 28.3 62.8794 30.25 65.646 30.25C67.346 30.25 68.9127 29.3333 69.596 27.7167L67.896 27.1667C67.446 28.1167 66.6127 28.6 65.546 28.6C64.0127 28.6 63.146 27.6 63.0127 25.9833ZM65.546 22.3C67.096 22.2833 67.7627 23.1333 67.9294 24.5833H63.0627C63.2794 23.2 64.046 22.2833 65.546 22.3Z" fill="white"/>
<path d="M211.863 55.4937C210.127 57.5792 209.442 59.8104 209.427 62.1875C209.442 64.55 210.142 66.825 211.863 68.8667L210.74 69.7271C209.033 67.7438 207.998 64.9 208.042 62.1875C207.998 59.475 209.033 56.6312 210.74 54.6479L211.863 55.4937ZM224.786 59.5771C224.305 59.1104 223.561 58.9208 222.934 58.9208C221.986 58.9208 221.067 59.3875 220.557 60.1896V60.2042C220.425 59.9854 220.28 59.7812 220.061 59.5771C219.58 59.1104 218.836 58.9208 218.209 58.9208C217.334 58.9208 216.503 59.3146 215.978 59.9854V59.125H214.621V67H216.153V62.0708C216.153 61.6333 216.211 61.2396 216.546 60.8312C216.838 60.4812 217.29 60.2917 217.771 60.2917C218.165 60.2917 218.559 60.4375 218.836 60.7146C219.273 61.1229 219.346 61.5604 219.346 62.275V67H220.878L220.892 62.1729V62.0708C220.892 61.6333 220.95 61.2396 221.271 60.8312C221.578 60.4812 222.03 60.2917 222.496 60.2917C222.89 60.2917 223.298 60.4375 223.575 60.7146C224.013 61.1229 224.086 61.5604 224.086 62.275L224.071 67H225.617V62.1729C225.617 61.1083 225.559 60.3062 224.786 59.5771ZM235.036 67V62.2312C235.036 61.7354 235.007 61.2833 234.876 60.8896C234.482 59.6062 233.432 58.9062 231.842 58.9062C230.121 58.9062 228.94 59.8104 228.488 61.0937L229.888 61.5167C230.18 60.6708 230.909 60.3208 231.798 60.3208C232.761 60.3208 233.461 60.8167 233.519 61.9104C232.178 62.1 230.865 62.2312 229.801 62.625C228.78 62.975 228.196 63.7042 228.196 64.7979C228.196 66.2562 229.246 67.2188 230.792 67.2188C232.148 67.2188 233.023 66.7958 233.694 65.8771V67H235.036ZM233.228 64.8271C232.848 65.5417 232.032 65.9792 231.098 65.9792C230.209 65.9792 229.698 65.4687 229.698 64.8271C229.698 64.2 230.18 63.8354 230.894 63.6458C231.653 63.4271 232.353 63.3542 233.519 63.1792C233.519 63.6167 233.505 64.3458 233.228 64.8271ZM244.761 59.125H242.953L241.013 61.8229L239.044 59.125H237.236L240.124 63.0187L237.178 67H238.986L241.013 64.2146L243.026 67H244.834L241.874 63.0187L244.761 59.125ZM257.317 61.225C257.127 59.7521 255.742 58.9062 254.007 58.9062C252.432 58.9062 250.959 59.6792 250.959 61.2104C250.959 62.3479 251.717 62.975 252.796 63.2812L254.575 63.7771C255.29 63.9812 255.786 64.2 255.786 64.8125C255.786 65.5125 255.115 65.8771 254.284 65.8771C253.307 65.8771 252.475 65.4542 252.271 64.55L250.711 64.7979C251.017 66.4896 252.388 67.2188 254.225 67.2188C256.004 67.2188 257.361 66.3437 257.361 64.7396C257.361 63.4271 256.5 62.8437 254.954 62.45C254.313 62.2896 253.875 62.1729 253.496 62.0562C252.854 61.8812 252.49 61.6187 252.49 61.1521C252.49 60.5833 253.161 60.2187 254.036 60.2479C254.925 60.2771 255.625 60.6854 255.757 61.5021L257.317 61.225ZM262.247 60.35H264.595V59.125H262.247V56.9375H260.73V59.125H259.213V60.35H260.73V63.9083C260.73 64.7687 260.657 65.4687 261.036 66.0667C261.401 66.6937 261.882 66.9417 262.597 67.0583C263.136 67.1458 264.026 67.1458 264.595 67V65.7021C264.186 65.775 263.705 65.8042 263.297 65.7604C262.947 65.7312 262.597 65.5708 262.407 65.2354C262.218 64.9292 262.247 64.4625 262.247 63.8208V60.35ZM273.763 67V62.2312C273.763 61.7354 273.734 61.2833 273.603 60.8896C273.209 59.6062 272.159 58.9062 270.569 58.9062C268.848 58.9062 267.667 59.8104 267.215 61.0937L268.615 61.5167C268.907 60.6708 269.636 60.3208 270.525 60.3208C271.488 60.3208 272.188 60.8167 272.246 61.9104C270.905 62.1 269.592 62.2312 268.528 62.625C267.507 62.975 266.923 63.7042 266.923 64.7979C266.923 66.2562 267.973 67.2188 269.519 67.2188C270.875 67.2188 271.75 66.7958 272.421 65.8771V67H273.763ZM271.955 64.8271C271.575 65.5417 270.759 65.9792 269.825 65.9792C268.936 65.9792 268.425 65.4687 268.425 64.8271C268.425 64.2 268.907 63.8354 269.621 63.6458C270.38 63.4271 271.08 63.3542 272.246 63.1792C272.246 63.6167 272.232 64.3458 271.955 64.8271ZM283.59 61.3125C283.196 59.825 281.884 58.9062 280.163 58.9062C277.786 58.9062 276.357 60.6271 276.342 63.0625C276.357 65.4542 277.728 67.2188 280.148 67.2188C281.84 67.2188 283.065 66.3729 283.59 64.8417L282.03 64.4625C281.723 65.3229 281.125 65.775 280.148 65.775C278.705 65.775 277.975 64.6958 277.961 63.0625C277.975 61.4875 278.646 60.35 280.148 60.35C281.023 60.35 281.767 60.8604 282.073 61.7354L283.59 61.3125ZM286.185 67H287.745V63.2083L291.041 67H293.112L289.51 63.0625L292.776 59.125H290.837L287.745 62.9167V56.5H286.199L286.185 67ZM305.162 61.225C304.972 59.7521 303.587 58.9062 301.852 58.9062C300.277 58.9062 298.804 59.6792 298.804 61.2104C298.804 62.3479 299.562 62.975 300.641 63.2812L302.42 63.7771C303.135 63.9812 303.631 64.2 303.631 64.8125C303.631 65.5125 302.96 65.8771 302.129 65.8771C301.152 65.8771 300.32 65.4542 300.116 64.55L298.556 64.7979C298.862 66.4896 300.233 67.2188 302.07 67.2188C303.849 67.2188 305.206 66.3437 305.206 64.7396C305.206 63.4271 304.345 62.8437 302.799 62.45C302.158 62.2896 301.72 62.1729 301.341 62.0562C300.699 61.8812 300.335 61.6187 300.335 61.1521C300.335 60.5833 301.006 60.2187 301.881 60.2479C302.77 60.2771 303.47 60.6854 303.602 61.5021L305.162 61.225ZM308.079 56.3104V57.7833H309.611V56.3104H308.079ZM308.079 59.125H309.611V67H308.079V59.125ZM318.873 65.6437H314.614L319.077 59.3729V59.125H312.602V60.4812H316.671L312.193 66.7667V67H318.873V65.6437ZM322.403 63.4854H328.28C328.425 60.8021 327.157 58.9062 324.619 58.9062C322.257 58.9062 320.769 60.5979 320.769 63.1354C320.769 65.5125 322.286 67.2188 324.707 67.2188C326.194 67.2188 327.565 66.4167 328.163 65.0021L326.675 64.5208C326.282 65.3521 325.553 65.775 324.619 65.775C323.278 65.775 322.519 64.9 322.403 63.4854ZM324.619 60.2625C325.975 60.2479 326.559 60.9917 326.705 62.2604H322.446C322.636 61.05 323.307 60.2479 324.619 60.2625ZM330.026 55.4937L331.149 54.6479C332.855 56.6312 333.89 59.475 333.847 62.1875C333.89 64.9 332.855 67.7438 331.149 69.7271L330.026 68.8667C331.747 66.825 332.447 64.55 332.461 62.1875C332.447 59.8104 331.761 57.5792 330.026 55.4937Z" fill="#FA7799"/>
</svg>
