<svg width="336" height="48" viewBox="0 0 336 48" fill="none" xmlns="http://www.w3.org/2000/svg">
<path d="M0.5 16C0.5 7.43959 7.43959 0.5 16 0.5H320C328.56 0.5 335.5 7.43959 335.5 16V32C335.5 40.5604 328.56 47.5 320 47.5H16C7.43959 47.5 0.5 40.5604 0.5 32V16Z" fill="white" stroke="#FA7799"/>
<rect width="88" height="48" rx="16" fill="#FA7799"/>
<path d="M31.8833 18H22.1667V19.65H26.15V30H27.9V19.65H31.8833V18ZM34.6602 17.7833V19.4667H36.4102V17.7833H34.6602ZM34.6602 21H36.4102V30H34.6602V21ZM51.8121 21.5167C51.2621 20.9833 50.4121 20.7667 49.6954 20.7667C48.6121 20.7667 47.5621 21.3 46.9787 22.2167V22.2333C46.8287 21.9833 46.6621 21.75 46.4121 21.5167C45.8621 20.9833 45.0121 20.7667 44.2954 20.7667C43.2954 20.7667 42.3454 21.2167 41.7454 21.9833V21H40.1954V30H41.9454V24.3667C41.9454 23.8667 42.0121 23.4167 42.3954 22.95C42.7287 22.55 43.2454 22.3333 43.7954 22.3333C44.2454 22.3333 44.6954 22.5 45.0121 22.8167C45.5121 23.2833 45.5954 23.7833 45.5954 24.6V30H47.3454L47.3621 24.4833V24.3667C47.3621 23.8667 47.4288 23.4167 47.7954 22.95C48.1454 22.55 48.6621 22.3333 49.1954 22.3333C49.6454 22.3333 50.1121 22.5 50.4288 22.8167C50.9288 23.2833 51.0121 23.7833 51.0121 24.6L50.9954 30H52.7621V24.4833C52.7621 23.2667 52.6954 22.35 51.8121 21.5167ZM57.4671 25.9833H64.1838C64.3504 22.9167 62.9004 20.75 60.0004 20.75C57.3004 20.75 55.6004 22.6833 55.6004 25.5833C55.6004 28.3 57.3338 30.25 60.1004 30.25C61.8004 30.25 63.3671 29.3333 64.0504 27.7167L62.3504 27.1667C61.9004 28.1167 61.0671 28.6 60.0004 28.6C58.4671 28.6 57.6004 27.6 57.4671 25.9833ZM60.0004 22.3C61.5504 22.2833 62.2171 23.1333 62.3838 24.5833H57.5171C57.7338 23.2 58.5004 22.2833 60.0004 22.3Z" fill="white"/>
</svg>
