<svg width="84" height="76" viewBox="0 0 84 76" fill="none" xmlns="http://www.w3.org/2000/svg">
<g filter="url(#filter0_di)">
<rect x="10" y="6" width="64" height="56" rx="28" fill="#ACACAC"/>
</g>
<path d="M39.7 29.5H35.7L33.05 33.5L30.35 29.5H26.35L31.075 36.175L26.25 43H30.25L33.05 38.85L35.825 43H39.825L34.975 36.175L39.7 29.5ZM43.3309 30.65H46.8309C46.8059 29.875 47.1559 29.1 47.7059 28.575C48.2059 28.1 48.8809 27.825 49.7059 27.825C50.5809 27.825 51.2809 28.125 51.8309 28.8C52.2559 29.325 52.4309 30.025 52.4309 30.675C52.4309 31.45 52.0059 32.325 50.8809 33.325L43.3309 40.025V42.975H55.9309V39.775H48.6059L52.6309 36.25C54.7809 34.375 55.9309 33.4 55.9309 30.725C55.9309 29.275 55.5059 27.775 54.5309 26.675C53.3059 25.3 51.5559 24.625 49.7809 24.625C48.1309 24.625 46.5559 25 45.3559 26.05C43.8559 27.35 43.3309 28.875 43.3309 30.65Z" fill="white"/>
<defs>
<filter id="filter0_di" x="0" y="0" width="84" height="76" filterUnits="userSpaceOnUse" color-interpolation-filters="sRGB">
<feFlood flood-opacity="0" result="BackgroundImageFix"/>
<feColorMatrix in="SourceAlpha" type="matrix" values="0 0 0 0 0 0 0 0 0 0 0 0 0 0 0 0 0 0 127 0"/>
<feOffset dy="4"/>
<feGaussianBlur stdDeviation="5"/>
<feColorMatrix type="matrix" values="0 0 0 0 0 0 0 0 0 0 0 0 0 0 0 0 0 0 0.25 0"/>
<feBlend mode="normal" in2="BackgroundImageFix" result="effect1_dropShadow"/>
<feBlend mode="normal" in="SourceGraphic" in2="effect1_dropShadow" result="shape"/>
<feColorMatrix in="SourceAlpha" type="matrix" values="0 0 0 0 0 0 0 0 0 0 0 0 0 0 0 0 0 0 127 0" result="hardAlpha"/>
<feOffset dx="-2" dy="-4"/>
<feGaussianBlur stdDeviation="1"/>
<feComposite in2="hardAlpha" operator="arithmetic" k2="-1" k3="1"/>
<feColorMatrix type="matrix" values="0 0 0 0 0.623529 0 0 0 0 0.458824 0 0 0 0 0.498039 0 0 0 1 0"/>
<feBlend mode="normal" in2="shape" result="effect2_innerShadow"/>
</filter>
</defs>
</svg>
